<svg xmlns="http://www.w3.org/2000/svg" viewBox="0 0 100 100" width="100" height="100" role="img" aria-label="Auralis">
  <rect width="100" height="100" fill="#ff5900"/>
  <!-- High-contrast serif A: thin left stroke, thick right stroke, flared feet.
       Drawn as a path so it never depends on a font being installed. -->
  <!-- glyph scaled about the centre so the mark breathes inside the square -->
  <g transform="translate(50 50) scale(0.76) translate(-50 -50)">
  <path fill="#FAF7F2" fill-rule="evenodd" d="
    M46.6 14 h6.4
    L78.2 80.6
    q1.6 4.2 3.6 5.3 q1.6 0.9 5.2 1.0 v2.5 H62.4 v-2.5
    q3.9 -0.1 5.1 -0.8 q1.3 -0.8 0.7 -2.6
    L63.6 69.9 H36.0
    L31.5 82.4 q-0.7 2.0 0.7 2.9 q1.2 0.8 4.9 0.9 v2.5 H14.2 v-2.5
    q3.4 -0.2 5.0 -1.2 q1.7 -1.1 3.1 -4.8
    Z
    M50.0 30.4 L38.0 64.0 h24.0 Z
  "/>
  </g>
</svg>
